# xmcd CD database file
#
# Track frame offsets:
#	150
#	17400
#	33525
#	44075
#	57750
#	70425
#	82275
#	95437
#	102675
#	115800
#	126100
#	147975
#	157350
#	167125
#	174025
#
# Disc length: 2518 seconds
#
# Revision: 4
# Processed by: cddbd v1.5.2PL0 Copyright (c) Steve Scherf et al.
# Submitted via: CDex 1.70beta2
#
DISCID=d909d40f
DTITLE=Hanne Krogh - Prøysens Barnesanger
DYEAR=1995
DGENRE=Barnesanger
TTITLE0=Blåbærturen
TTITLE1=Teddybjørnens vise
TTITLE2=Hompetitten
TTITLE3=Bolla Pinnsvin
TTITLE4=Skippervise
TTITLE5=Kveldssang for Laffen
TTITLE6=Lille Måltrost
TTITLE7=Nøtteliten
TTITLE8=Den første løvetann
TTITLE9=Basarvisa
TTITLE10=Lillebrors vise
TTITLE11=Soltrall
TTITLE12=Helene Harefrøken
TTITLE13=Strikkevise
TTITLE14=Drømmevise
EXTD=YEAR: 1995
EXTT0=
EXTT1=
EXTT2=
EXTT3=
EXTT4=
EXTT5=
EXTT6=
EXTT7=
EXTT8=
EXTT9=
EXTT10=
EXTT11=
EXTT12=
EXTT13=
EXTT14=
PLAYORDER=
